<?xml version="1.0" standalone="no"?>
<!DOCTYPE svg PUBLIC "-//W3C//DTD SVG 20010904//EN"
 "http://www.w3.org/TR/2001/REC-SVG-20010904/DTD/svg10.dtd">
<svg version="1.0" xmlns="http://www.w3.org/2000/svg"
 width="1024.000000pt" height="1024.000000pt" viewBox="0 0 1024.000000 1024.000000"
 preserveAspectRatio="xMidYMid meet">

<g transform="translate(0.000000,1024.000000) scale(0.100000,-0.100000)"
fill="#000000" stroke="none">
<path d="M2050 10229 c-683 -78 -1286 -446 -1667 -1017 -204 -304 -331 -658
-373 -1037 -14 -123 -14 -5987 0 -6110 42 -379 169 -733 373 -1037 385 -577
986 -941 1682 -1018 123 -14 5987 -14 6110 0 379 42 733 169 1037 373 577 385
941 986 1018 1682 14 123 14 5987 0 6110 -77 696 -441 1297 -1018 1682 -304
204 -658 331 -1037 373 -112 12 -6016 11 -6125 -1z m4342 -2036 c-42 -58 -183
-253 -313 -432 l-236 -326 1044 -3 c829 -2 1044 -5 1040 -15 -2 -6 -584 -811
-1291 -1787 l-1287 -1775 1176 -3 1175 -2 0 -785 0 -785 -2796 0 -2796 0 14
23 c9 12 599 828 1313 1812 l1297 1790 -1047 5 -1047 5 863 1192 864 1192
1052 1 1053 0 -78 -107z"/>
</g>
</svg>
